<svg width="38" height="34" viewBox="0 0 38 34" fill="none" xmlns="http://www.w3.org/2000/svg">
<path d="M36.9444 29.75H33.7778V7.5373C33.7778 5.72774 32.3594 4.25021 30.6111 4.25021L23.2222 4.25088V8.50018H29.5556V34H36.9444C37.5299 34 38 33.5269 38 32.9973V30.9321C38 30.2215 37.5316 29.75 36.9444 29.75ZM18.492 0.0671113L5.82535 3.3708C4.82257 3.62002 4.22222 4.4999 4.22222 5.50395V29.75H1.05556C0.470052 29.75 0 30.2232 0 30.7528V32.818C0 33.5285 0.470052 34 1.05556 34H21.1111V2.20026C21.1111 0.77254 19.8247 -0.281519 18.492 0.0671113ZM15.3056 19.1251C14.4314 19.1251 13.7222 18.1709 13.7222 17.0599C13.7222 15.8898 14.4314 14.9947 15.3056 14.9947C16.1797 14.9947 16.8889 15.8314 16.8889 17.0001C16.8889 18.1689 16.183 19.1251 15.3056 19.1251Z" fill="black"/>
</svg>
