<svg width="512" height="512" viewBox="0 0 512 512" fill="none" xmlns="http://www.w3.org/2000/svg">
<path d="M496 48V192C496 209.69 481.69 224 464 224H320C302.31 224 288 209.69 288 192C288 174.31 302.31 160 320 160H383.39C353.42 120.3 306.14 96.22 255.79 96.22C167.7 96.22 96 167.9 96 256C96 344.1 167.69 415.8 255.8 415.8C290.68 415.8 323.83 404.77 351.68 383.86C365.9 373.33 385.9 376.11 396.49 390.235C407.08 404.395 404.24 424.455 390.115 435.045C351.085 464.325 304.755 479.905 255.915 479.905C132.5 479.9 32 379.4 32 256C32 132.6 132.5 32.1 255.9 32.1C325.05 32.1 389.9 64.57 432 118.22V48C432 30.31 446.31 16 464 16C481.69 16 496 30.31 496 48Z" fill="white"/>
</svg>
