<?xml version="1.0" standalone="no"?>
<!DOCTYPE svg PUBLIC "-//W3C//DTD SVG 20010904//EN"
 "http://www.w3.org/TR/2001/REC-SVG-20010904/DTD/svg10.dtd">
<svg version="1.0" xmlns="http://www.w3.org/2000/svg"
 width="274.000000pt" height="274.000000pt" viewBox="0 0 274.000000 274.000000"
 preserveAspectRatio="xMidYMid meet">
<metadata>
Created by potrace 1.14, written by Peter Selinger 2001-2017
</metadata>
<g transform="translate(0.000000,274.000000) scale(0.100000,-0.100000)"
fill="#000000" stroke="none">
<path d="M1035 2491 c-6 -5 -38 -24 -72 -42 -35 -18 -63 -36 -63 -39 0 -4 25
-24 56 -44 l56 -36 28 20 c15 11 33 20 38 20 6 0 12 3 14 8 2 4 22 20 45 36
24 16 40 32 37 37 -2 5 -26 15 -52 23 -26 8 -54 17 -62 20 -9 4 -20 2 -25 -3z"/>
<path d="M1530 2431 c-25 -11 -53 -22 -62 -25 -30 -9 -20 -23 45 -61 34 -20
74 -44 89 -53 25 -16 29 -15 67 6 23 13 46 20 53 16 6 -4 8 -3 5 3 -4 6 0 13
8 17 8 3 15 10 15 15 0 8 -58 49 -85 60 -5 2 -17 9 -25 17 -27 23 -64 24 -110
5z"/>
<path d="M388 2248 c-26 -29 -61 -68 -77 -86 -24 -25 -29 -37 -22 -50 11 -20
105 -122 97 -106 -7 15 54 85 67 77 5 -3 7 -1 3 5 -7 12 39 67 57 67 27 0 11
48 -32 95 l-46 51 -47 -53z"/>
<path d="M1339 2260 c-30 -22 -58 -43 -64 -47 -5 -5 -22 -18 -38 -30 l-27 -21
38 -30 c102 -81 148 -112 160 -107 8 3 20 5 28 5 9 0 13 3 11 8 -3 4 1 13 9
20 8 7 14 10 14 7 0 -3 13 8 29 24 16 16 31 27 34 24 3 -2 11 5 17 17 6 12 17
19 24 17 7 -3 12 4 13 17 1 16 -18 34 -88 79 -49 31 -93 57 -97 57 -5 0 -33
-18 -63 -40z"/>
<path d="M1960 2282 c-8 -2 -21 -6 -29 -8 -8 -2 26 -37 82 -83 105 -86 124
-101 113 -82 -4 6 0 14 8 17 24 9 19 30 -10 49 -14 9 -33 22 -42 30 -64 52
-110 81 -122 77z"/>
<path d="M1815 2208 c-38 -27 -69 -54 -67 -60 3 -13 10 -19 112 -103 114 -95
122 -100 118 -87 -2 6 24 36 56 67 l60 57 -35 29 c-19 17 -49 43 -67 59 -18
17 -37 30 -42 30 -5 0 -13 6 -17 13 -4 6 -17 19 -28 29 -19 16 -23 14 -90 -34z"/>
<path d="M865 2213 c-22 -21 -60 -54 -84 -74 l-44 -36 29 -25 c16 -14 42 -37
58 -51 l30 -24 60 49 c33 28 66 56 73 64 8 8 19 12 24 8 5 -3 8 0 7 8 -2 7 5
12 14 12 14 -1 15 2 8 16 -12 23 -103 90 -121 90 -8 0 -32 -17 -54 -37z"/>
<path d="M1080 2068 c-25 -22 -67 -59 -94 -82 -86 -73 -83 -65 -35 -109 46
-41 100 -89 135 -119 20 -17 22 -16 66 25 25 23 73 67 107 99 33 31 61 58 61
61 0 4 -133 118 -180 154 -12 9 -24 3 -60 -29z"/>
<path d="M1594 2038 c-125 -102 -131 -108 -117 -116 6 -4 54 -47 108 -97 107
-100 132 -116 145 -96 4 8 13 10 20 6 9 -5 11 -4 6 3 -8 13 101 119 116 114 5
-1 7 2 4 7 -4 5 5 18 19 29 l25 20 -68 57 c-37 31 -78 67 -92 78 -14 12 -37
32 -51 44 l-27 23 -88 -72z"/>
<path d="M2186 2081 c-21 -24 -20 -35 7 -65 12 -13 36 -42 54 -63 17 -21 43
-51 57 -68 14 -16 26 -34 26 -38 0 -19 18 5 23 29 4 22 -9 45 -64 120 -38 51
-73 95 -78 98 -4 3 -16 -3 -25 -13z"/>
<path d="M2128 2011 c-1 -5 -27 -35 -56 -66 l-53 -57 23 -26 c13 -15 30 -33
38 -42 8 -8 41 -45 73 -82 32 -38 63 -68 68 -68 5 0 15 11 21 25 6 14 17 24
24 21 8 -3 16 0 20 6 4 7 3 8 -4 4 -7 -4 -12 -4 -12 -1 0 10 43 69 52 73 14 6
9 17 -24 54 -18 20 -42 47 -53 60 -11 13 -36 43 -55 66 -33 40 -55 52 -62 33z"/>
<path d="M690 1893 c-24 -27 -68 -74 -98 -106 -53 -57 -54 -59 -36 -76 11 -10
48 -50 83 -89 46 -51 68 -69 76 -62 7 5 16 6 20 2 5 -4 5 -2 2 4 -8 13 66 87
77 77 4 -5 6 -1 4 7 -2 8 3 14 10 12 8 -1 11 1 8 6 -2 4 14 28 37 52 l43 43
-87 89 c-47 48 -88 88 -91 88 -2 0 -24 -21 -48 -47z"/>
<path d="M1287 1767 l-118 -113 82 -80 c45 -43 100 -98 124 -122 34 -35 44
-40 49 -27 3 10 11 13 18 9 7 -4 10 -4 6 1 -11 12 119 138 133 129 8 -4 9 -3
5 5 -5 7 8 26 33 48 l41 35 -42 38 c-24 21 -78 72 -121 114 -42 42 -81 76 -85
76 -4 -1 -60 -51 -125 -113z"/>
<path d="M303 1784 l-42 -85 21 -66 c19 -61 22 -65 35 -47 8 10 24 30 36 44
11 14 20 25 18 25 -2 0 7 17 19 37 12 21 26 36 30 33 9 -6 8 8 -5 45 -9 30
-55 100 -64 99 -3 0 -25 -38 -48 -85z"/>
<path d="M2368 1828 c-2 -13 9 -41 23 -63 14 -22 36 -66 49 -97 23 -57 38 -71
27 -26 -4 13 -6 25 -5 28 0 3 -9 24 -21 47 -11 23 -21 49 -21 56 0 8 -7 20
-15 27 -8 7 -15 21 -15 31 0 27 -18 24 -22 -3z"/>
<path d="M1868 1746 c-54 -52 -98 -99 -98 -104 0 -5 51 -62 113 -126 115 -120
137 -132 170 -96 10 12 9 12 -5 1 -10 -7 -18 -10 -18 -6 0 12 53 70 62 68 4
-2 7 2 5 9 -1 7 3 12 10 13 6 0 15 4 20 9 5 5 3 6 -4 2 -7 -4 -13 -3 -13 2 0
15 26 33 35 24 5 -4 5 -2 1 5 -4 7 2 21 14 33 11 11 20 26 20 33 0 12 -198
227 -209 227 -3 0 -50 -43 -103 -94z"/>
<path d="M2342 1743 c-15 -37 -64 -113 -73 -113 -21 0 3 -70 37 -106 6 -7 28
-39 50 -73 21 -33 43 -59 49 -58 5 2 18 26 28 53 10 27 23 57 28 66 16 31 10
65 -24 125 -74 131 -81 139 -95 106z"/>
<path d="M992 1475 c-62 -63 -112 -118 -112 -122 0 -11 219 -233 230 -233 4 0
11 7 14 16 4 10 12 14 23 10 10 -4 14 -4 10 0 -9 10 43 65 55 58 5 -3 7 -1 6
4 -5 15 122 133 135 126 7 -4 -6 12 -28 35 -76 81 -215 221 -218 221 -2 0 -54
-52 -115 -115z"/>
<path d="M1590 1469 c-63 -66 -116 -123 -118 -127 -1 -4 54 -63 122 -131 l123
-123 21 27 c13 16 26 24 33 19 8 -4 9 -3 5 4 -4 7 31 50 84 103 49 51 90 96
90 101 0 5 -26 35 -57 67 -32 33 -84 86 -117 120 -32 34 -61 61 -65 61 -3 -1
-58 -55 -121 -121z"/>
<path d="M565 1537 c-10 -18 -40 -64 -65 -103 l-47 -71 66 -97 c57 -84 67 -95
78 -81 6 10 16 14 22 10 6 -3 9 0 6 8 -7 16 29 60 40 49 5 -4 5 -2 2 5 -4 6 0
19 9 28 9 9 28 32 41 51 l23 35 -61 82 c-34 45 -63 87 -66 93 -9 25 -30 21
-48 -9z"/>
<path d="M2159 1483 c-36 -43 -75 -92 -88 -109 l-23 -32 20 -23 c35 -40 56
-65 94 -110 68 -82 78 -92 85 -86 3 4 3 7 -1 7 -4 0 2 14 14 30 12 17 26 27
32 24 7 -4 8 -2 4 4 -9 16 42 95 56 86 7 -4 8 -3 4 4 -9 14 18 55 28 44 4 -4
6 0 4 8 -1 8 -5 17 -8 20 -6 6 -81 115 -117 169 -14 23 -30 41 -33 41 -4 0
-36 -35 -71 -77z"/>
<path d="M2474 1492 c8 -13 -19 -83 -29 -75 -4 5 -5 2 -1 -4 4 -7 3 -28 -2
-46 -7 -25 -5 -45 8 -80 10 -25 15 -48 12 -51 -3 -4 0 -6 6 -6 7 0 12 -7 12
-16 0 -13 3 -14 14 -5 19 16 22 206 4 228 -7 9 -12 18 -10 20 7 10 1 43 -9 43
-5 0 -8 -4 -5 -8z"/>
<path d="M353 1238 c-18 -36 -31 -81 -32 -106 0 -24 -3 -47 -6 -52 -2 -4 13
-42 36 -84 22 -41 40 -78 40 -81 0 -5 23 -62 49 -120 10 -22 28 -65 41 -95 19
-46 68 -110 85 -110 5 0 64 -40 74 -50 3 -3 19 -6 35 -6 17 -1 35 -2 41 -3 5
-1 19 -9 30 -19 10 -9 53 -45 95 -80 l76 -62 59 20 c32 12 70 22 84 24 14 2
33 7 42 11 10 4 23 5 30 2 7 -3 -5 -12 -27 -22 -22 -9 -41 -18 -43 -20 -9 -9
75 -124 92 -127 12 -2 71 -4 133 -3 77 1 110 -2 106 -9 -3 -6 0 -5 8 2 7 6 17
12 22 12 4 0 5 -6 1 -12 -5 -10 -4 -10 6 -1 7 6 18 9 25 7 6 -3 12 1 12 8 1 7
2 66 3 130 2 118 10 146 39 129 10 -7 12 -27 6 -92 -11 -131 -11 -174 0 -174
6 0 16 -4 23 -8 7 -5 12 -4 12 3 0 6 4 9 9 6 4 -3 57 -8 117 -10 99 -4 109 -3
122 15 7 11 18 17 23 14 5 -3 6 1 3 10 -5 13 2 15 49 14 33 -1 63 3 71 10 8 7
20 10 25 6 7 -4 8 1 4 11 -5 14 -3 16 12 10 11 -4 16 -4 13 0 -10 10 62 65 75
57 6 -3 7 -1 3 5 -7 11 32 38 47 34 5 -1 6 2 3 7 -7 11 17 21 50 21 13 0 24 5
24 11 0 6 6 9 14 6 8 -3 13 1 12 11 0 9 4 16 11 15 8 -2 10 4 6 14 -5 12 -2
15 10 10 11 -4 14 -2 10 9 -3 7 -1 14 3 14 18 0 55 69 90 166 19 54 37 106 39
114 5 23 37 104 46 115 4 6 10 22 13 35 3 14 9 40 15 58 13 42 -3 42 -19 0 -9
-24 -14 -28 -17 -16 -2 9 4 32 14 50 18 34 25 88 11 88 -4 0 -8 9 -8 20 0 11
-5 20 -10 20 -6 0 -9 3 -8 8 1 6 -3 20 -20 64 -5 13 -22 -4 -70 -72 -93 -133
-91 -124 -37 -205 26 -39 51 -72 55 -75 21 -14 10 -90 -14 -90 -7 0 -26 -16
-42 -36 -16 -20 -36 -44 -44 -53 -8 -9 -28 -35 -44 -56 -30 -39 -44 -54 -99
-101 -24 -20 -26 -26 -15 -43 22 -36 -3 -37 -32 -1 l-28 34 29 22 29 21 -66
65 c-72 70 -66 69 -118 23 -134 -121 -236 -197 -236 -176 0 18 111 122 122
115 6 -4 8 -3 5 3 -7 11 36 56 46 48 4 -3 5 -2 3 1 -7 9 45 63 58 60 6 -2 7
-1 3 2 -5 2 -1 12 8 22 14 16 14 18 -7 33 -26 17 -69 55 -145 128 -29 28 -57
49 -62 47 -5 -1 -64 -55 -131 -118 l-121 -115 28 -23 c15 -13 61 -50 101 -83
40 -32 70 -59 67 -59 -12 0 -165 113 -165 122 0 4 -5 8 -11 8 -6 0 -25 11 -43
25 -18 14 -38 25 -44 25 -7 0 -12 5 -12 10 0 9 22 14 36 8 3 -2 10 5 15 15 6
9 15 14 21 11 6 -4 8 -2 4 4 -8 14 63 84 77 75 5 -3 7 -2 4 4 -8 13 97 116
109 106 5 -5 6 -4 1 1 -4 5 0 17 9 27 14 16 6 26 -107 138 -68 67 -125 121
-127 121 -3 0 -22 -17 -43 -37 -21 -21 -78 -76 -128 -122 l-91 -85 26 -27 26
-27 -30 -16 c-28 -15 -32 -14 -47 1 -15 15 -24 8 -126 -93 -95 -95 -107 -111
-93 -121 37 -27 144 -126 144 -133 0 -4 -11 -10 -24 -12 -18 -4 -37 7 -77 44
-87 79 -96 84 -119 63 -11 -10 -26 -15 -34 -12 -8 3 -26 -3 -39 -14 -34 -26
-49 -25 -38 4 5 12 14 21 20 19 6 -1 10 1 10 5 -4 24 3 35 17 29 8 -3 13 -2 9
3 -3 5 2 16 10 25 14 13 11 19 -27 59 -24 24 -63 67 -88 96 -75 89 -67 86
-106 39 -20 -23 -42 -54 -50 -70 -14 -27 -13 -32 7 -66 12 -20 31 -47 42 -59
22 -25 19 -37 -7 -27 -17 6 -96 117 -96 134 0 5 -4 10 -8 12 -12 5 -52 78 -43
78 4 0 14 12 22 28 8 15 16 29 19 32 3 3 14 21 24 41 l19 37 -46 73 c-77 123
-70 119 -104 47z"/>
<path d="M736 1200 c-47 -55 -86 -107 -86 -115 0 -16 60 -93 126 -160 86 -87
76 -86 144 -14 33 35 60 67 60 72 0 5 7 7 14 4 10 -4 13 -1 9 9 -3 9 1 14 12
14 9 0 14 4 11 9 -3 5 1 12 10 15 20 8 14 16 -93 132 -45 49 -90 99 -101 112
l-20 23 -86 -101z"/>
<path d="M1962 1262 c-12 -15 -60 -67 -107 -117 -47 -49 -85 -94 -85 -100 0
-5 44 -56 98 -113 86 -90 100 -101 111 -88 7 9 18 13 25 9 6 -3 8 -3 4 2 -10
10 11 37 23 29 5 -3 6 3 2 12 -5 14 -3 16 11 11 10 -4 15 -3 11 3 -7 12 63 86
77 82 5 -1 7 2 4 7 -7 10 18 33 27 26 4 -3 5 -2 2 2 -3 3 2 14 10 23 14 15 13
19 -7 42 -13 13 -45 51 -73 84 -78 93 -98 114 -104 114 -3 0 -16 -13 -29 -28z"/>
<path d="M2182 986 c-17 -19 -33 -32 -36 -29 -3 4 -6 1 -6 -6 0 -7 -22 -35
-50 -63 -27 -28 -50 -54 -50 -58 0 -4 -7 -10 -15 -14 -8 -3 -15 -11 -15 -18 0
-14 120 -138 133 -138 4 0 18 11 31 25 13 13 27 21 31 17 5 -4 5 -2 1 5 -3 6
-1 15 6 20 8 4 33 33 58 63 25 30 48 57 53 58 4 2 7 8 7 14 0 12 -103 157
-111 158 -4 0 -20 -15 -37 -34z"/>
</g>
</svg>
